<svg width="69" height="69" viewBox="0 0 69 69" fill="none" xmlns="http://www.w3.org/2000/svg">
<g filter="url(#filter0_d_36_615)">
<path d="M15.7646 20.8926C17.1761 14.8748 21.8749 10.1761 27.8926 8.76457C32.2386 7.74515 36.7614 7.74514 41.1074 8.76457C47.1252 10.1761 51.8239 14.8749 53.2354 20.8926C54.2549 25.2386 54.2549 29.7614 53.2354 34.1074C51.8239 40.1251 47.1252 44.8239 41.1074 46.2354C36.7614 47.2549 32.2386 47.2549 27.8926 46.2354C21.8749 44.8239 17.1761 40.1252 15.7646 34.1074C14.7451 29.7615 14.7451 25.2386 15.7646 20.8926Z" fill="#0F0303"/>
</g>
<path d="M36.9196 17.562L36.91 22.1824L36.9004 26.8028L36.4593 25.7302V25.7275L35.8873 36.0133C36.4498 37.3775 36.7502 38.1063 36.7534 38.109C36.7566 38.1118 37.0762 38.1283 37.4629 38.1448C38.6326 38.1943 40.0836 38.3015 41.1862 38.4198C41.4419 38.4473 41.6592 38.4611 41.6752 38.4501C41.6911 38.4391 41.6943 33.7361 41.6911 27.9964L41.6816 17.562H36.9196Z" fill="url(#paint0_linear_36_615)"/>
<path d="M28.3053 17.5482V27.9936C28.3053 33.7389 28.3117 38.4445 28.3213 38.4528C28.3309 38.461 28.7431 38.4253 29.2417 38.3785C29.7403 38.3318 30.4274 38.2713 30.7694 38.2465C31.2935 38.208 32.8659 38.1228 33.0449 38.12C33.0993 38.12 33.1024 37.8862 33.1088 33.6949L33.1184 29.2697L33.4987 30.1938C33.5563 30.3368 33.5755 30.3808 33.633 30.5211L34.2051 20.2379C34.0836 19.9436 34.1475 20.0976 34.0101 19.7621C33.5435 18.6263 33.1472 17.6664 33.1312 17.6224L33.0993 17.5454H28.3053V17.5482Z" fill="url(#paint1_linear_36_615)"/>
<path d="M28.3053 17.5482L33.1153 29.2779V29.2724L33.4956 30.1965C35.6081 35.3422 36.7427 38.1034 36.7491 38.1089C36.7523 38.1116 37.0719 38.1281 37.4586 38.1446C38.6283 38.1941 40.0793 38.3014 41.1819 38.4197C41.4344 38.4472 41.6549 38.4609 41.6677 38.4499L36.8993 26.7999V26.8027L36.4583 25.7301C36.0268 24.6823 35.7392 23.981 34.0037 19.7621C33.5371 18.6263 33.1408 17.6664 33.1248 17.6224L33.0929 17.5454H30.6991L28.3053 17.5482Z" fill="#E30A17"/>
<defs>
<filter id="filter0_d_36_615" x="0.375" y="0.6875" width="68.25" height="68.25" filterUnits="userSpaceOnUse" color-interpolation-filters="sRGB">
<feFlood flood-opacity="0" result="BackgroundImageFix"/>
<feColorMatrix in="SourceAlpha" type="matrix" values="0 0 0 0 0 0 0 0 0 0 0 0 0 0 0 0 0 0 127 0" result="hardAlpha"/>
<feOffset dy="7.3125"/>
<feGaussianBlur stdDeviation="7.3125"/>
<feColorMatrix type="matrix" values="0 0 0 0 0 0 0 0 0 0 0 0 0 0 0 0 0 0 0.08 0"/>
<feBlend mode="normal" in2="BackgroundImageFix" result="effect1_dropShadow_36_615"/>
<feBlend mode="normal" in="SourceGraphic" in2="effect1_dropShadow_36_615" result="shape"/>
</filter>
<linearGradient id="paint0_linear_36_615" x1="43.8389" y1="33.1828" x2="36.2172" y2="36.53" gradientUnits="userSpaceOnUse">
<stop stop-color="#B20610"/>
<stop offset="0.255959" stop-color="#B20610"/>
<stop offset="1" stop-color="#590004"/>
</linearGradient>
<linearGradient id="paint1_linear_36_615" x1="25.994" y1="22.1284" x2="34.2367" y2="18.5503" gradientUnits="userSpaceOnUse">
<stop stop-color="#B20610"/>
<stop offset="0.255959" stop-color="#B20610"/>
<stop offset="1" stop-color="#590004"/>
</linearGradient>
</defs>
</svg>
